PathFileType	4	(X/Y/Z)	Patient4_TMGait_0pt4_03_right_30.trc.trc
DataRate	CameraRate	NumFrames	NumMarkers	Units	OrigDataRate	OrigDataStartFrame	OrigNumFrames
76.086956521739	76.086956521739	6	33	mm	76.086956521739	53	       141
Frame#	Time	Sacral			L.Shoulder			Chest			R.Shoulder			Neck			R.ASIS			L.ASIS			R.Thigh.Superior			R.Thigh.Lateral			R.Thigh.Inferior			R.Patella			L.Thigh.Superior			L.Thigh.Lateral			L.Thigh.Inferior			L.Patella			L.Shank.Superior			L.Shank.Lateral			L.Shank.Inferior			R.Shank.Superior			R.Shank.Lateral			R.Shank.Inferior			R.Heel			R.Midfoot.Superior			R.Midfoot.Lateral			R.Toe			L.Heel			L.Midfoot.Lateral			L.Midfoot.Superior			L.Toe			L.Elbow			L.Wrist			R.Elbow			R.Wrist			
		X1	Y1	Z1	X2	Y2	Z2	X3	Y3	Z3	X4	Y4	Z4	X5	Y5	Z5	X6	Y6	Z6	X7	Y7	Z7	X8	Y8	Z8	X9	Y9	Z9	X10	Y10	Z10	X11	Y11	Z11	X12	Y12	Z12	X13	Y13	Z13	X14	Y14	Z14	X15	Y15	Z15	X16	Y16	Z16	X17	Y17	Z17	X18	Y18	Z18	X19	Y19	Z19	X20	Y20	Z20	X21	Y21	Z21	X22	Y22	Z22	X23	Y23	Z23	X24	Y24	Z24	X25	Y25	Z25	X26	Y26	Z26	X27	Y27	Z27	X28	Y28	Z28	X29	Y29	Z29	X30	Y30	Z30	X31	Y31	Z31	X32	Y32	Z32	X33	Y33	Z33	

53	39.593428571429	848.873646562724	1005.064750275104	505.790402039880	1006.787088059875	1431.978071193659	305.769260721959	1128.889264020288	1364.359992566714	453.499266584170	1069.056766633910	1438.862511888144	636.613047142795	1013.378083535031	1495.973840386057	461.830073935276	1088.526391675153	941.991040696563	599.581119731901	1046.071795081876	964.594201081510	328.531319131352	1119.428128996732	737.921381999285	566.895649704286	1038.892390222683	631.004128105308	633.114741741994	1107.841743342716	576.549614794810	547.294922728587	1104.376631575854	488.868141836268	552.662015241123	1140.099949205745	793.605909501081	349.347269340306	1102.457383343106	664.683732696632	268.665822827236	1214.950606696437	612.558181664800	321.829240317980	1237.906387738495	528.444624315867	311.040367712697	1185.888984380793	453.769419635238	303.223027957661	1056.342773147845	379.691446157836	261.749946401226	1082.535149852178	248.821709697157	307.846626033099	1072.703543815892	400.876930472381	562.500509324440	1000.932450050776	300.071916248648	627.651397989491	1034.286119731190	203.684052055165	561.947219635186	895.494427245472	42.003719123118	536.226647450925	1065.332278511923	96.073475895969	570.265887915190	978.897252515742	36.785092923384	610.883493119920	1186.945741129629	45.154469480927	598.176469743720	920.987963165887	138.091233533182	356.158758412996	979.233460052703	110.717105125883	268.760621624650	1080.856755069478	142.376828884870	283.027607056874	1178.643003303532	53.844841501968	240.497366173844	918.022207055646	1086.261561482061	204.942183967286	940.160315998470	826.228227910232	186.448362898511	1124.994143594603	1106.553147355355	779.547060999301	1359.504613981966	1017.145623944260	726.050553088290	
54	39.606571428571	848.059723982729	1005.919638301313	507.456791857550	1005.778403036225	1432.269813704094	306.563113569928	1129.114428534713	1364.091050583914	452.974048638603	1071.520644189124	1438.861511106000	636.719025695131	1013.976603469264	1496.144179055244	462.419552374898	1088.157398751194	941.668489873894	599.168005694012	1043.890051676565	964.994630413745	328.457206669303	1117.065663886135	737.325912988743	566.334320759277	1036.266666359809	630.921082696761	633.289492580461	1104.181087122261	575.982819542359	547.095862678446	1100.184455289637	488.438886866511	552.637749791325	1137.842590438080	794.761645191722	349.588667265289	1101.279896195776	665.838010151948	268.603490144335	1213.420622378056	614.167261256526	322.745104910255	1237.698750430135	531.491467840984	311.400021482276	1189.070388501318	456.202551736705	302.805176624270	1064.035997855460	375.176653937478	260.997956615594	1098.165693618596	245.516243191784	305.990909406045	1068.340281319075	400.641950118417	562.574912729231	996.469870820015	299.974975881143	627.818150011128	1029.376363589004	203.563223014869	562.001538601132	890.200771030722	42.037966259266	536.293906388336	1060.076837460877	95.982445901383	570.264405040757	973.624520292069	36.777852773194	610.947311768775	1181.688226145515	44.944318739458	598.226280937308	944.022667314222	124.213829555084	354.116032677384	1003.387803058155	101.589341654934	266.144858755261	1102.867005921739	139.589869345422	280.268137091793	1206.025199358652	58.202385562862	236.383329662776	910.525216634692	1088.253960887590	206.848750482419	926.591474820123	827.726633189278	190.020902621302	1132.190260007010	1107.374031385687	778.447126567636	1369.433909266779	1030.793573570393	719.835340386291	
55	39.619714285714	847.208454638343	1006.729408234884	508.890068776002	1004.890294032883	1432.505627358435	307.182329345098	1129.381267469139	1363.711894639658	452.298393865890	1073.984204046870	1438.722995466209	636.648599676658	1014.639327529504	1496.230409261728	462.848896181509	1087.723576711195	941.287549029463	598.613687845432	1041.794508371351	965.251784581627	328.213326946325	1114.694257031506	736.714213586830	565.690318610054	1033.679315257099	630.818130302264	633.404426075547	1100.553159693170	575.411674775585	546.847534639262	1096.028173056979	488.000412234569	552.602540530100	1135.344664458154	795.460231405915	349.787084491903	1099.749035545005	666.617886808351	268.457921170610	1211.293076215697	615.189335990859	323.839074610179	1236.855199943477	534.114000363886	311.954568121086	1191.721923117197	458.404814706817	302.534547987998	1071.834186016710	370.565824561043	259.939846435084	1113.731297712354	242.583316697145	304.115969273410	1064.030803543504	400.394662764909	562.629651691022	992.028672733731	299.868377912206	627.949568714324	1024.488331301110	203.426864314328	562.042549433455	884.903493445403	42.068760861507	536.358339678548	1054.820097127870	95.885886671738	570.250190611798	968.352039475955	36.769878725431	611.012811809020	1176.432981711710	44.731908676040	598.276044529046	967.497902302918	111.132679424144	351.542373963313	1028.018684940070	93.297861285538	263.262128671235	1124.931051401697	137.457005904461	277.607220303118	1233.147871279234	63.404834020826	232.842068678562	903.253859115152	1090.269243808602	208.797837511407	913.910667466637	829.391701878151	193.617044903437	1139.198596454562	1108.006448245715	776.942427871155	1378.361784647165	1044.183397043219	713.362185259784	
56	39.632857142857	846.341981310413	1007.482941234855	510.084615871759	1004.126616394479	1432.684991920182	307.609864910596	1129.678443020367	1363.240183897135	451.478207836448	1076.400937477094	1438.466733244675	636.397031885777	1015.351028417141	1496.241985237075	463.102155954523	1087.233309047765	940.860691544607	597.938222611628	1039.799675087651	965.385162012209	327.807824141752	1112.347088838814	736.087144620183	564.989798857345	1031.135160616444	630.693942881563	633.446314398860	1096.986053508849	574.835108629544	546.550101798121	1091.933196209916	487.551855844975	552.538332309160	1132.648481328492	795.754432430217	349.944339170657	1097.903434431523	667.069837888924	268.214130170226	1208.665484982740	615.697673321055	325.012181582605	1235.475179266560	536.359192154798	312.656328578836	1193.876425683157	460.411280693506	302.421100051460	1079.689364578386	366.069162487467	258.562340671080	1128.956884604198	240.199662400988	302.306269449139	1059.787547298125	400.131117552106	562.645725377567	987.617914982315	299.757340227400	628.036786398624	1019.631064893992	203.274657671644	562.062116478004	879.605067595695	42.095925930182	536.421686931437	1049.564820317317	95.788845458461	570.224459600463	963.078894326344	36.761341111871	611.078231948604	1171.178707084124	44.526491344198	598.326087362010	990.914726964774	99.266682677072	348.479663763026	1052.693105894620	86.123755754287	260.229483003444	1146.658731384742	136.137175464723	275.197658224415	1259.554304249149	69.430001261522	230.195655668977	896.268330480834	1092.261640406406	210.806295558261	902.074344791945	831.148177562734	197.160957951543	1146.010167004587	1108.465160683356	775.029444856555	1386.309349459317	1057.201906990819	706.676326213657	
57	39.646000000000	845.487824340922	1008.171117782600	511.038582934886	1003.485636539303	1432.811429519882	307.832569630385	1129.993563686729	1362.700983192272	450.521656246883	1078.724388905860	1438.122219802808	635.961851439318	1016.092086213378	1496.193357314581	463.165763888669	1086.701651815326	940.404955407292	597.160092501205	1037.919872315612	965.421996618305	327.250379363635	1110.051610165718	735.446084050493	564.255257898151	1028.630956480355	630.550373392278	633.401940545596	1093.496710875375	574.252566981289	546.203123552724	1087.913494599630	487.093613618323	552.426916407269	1129.814915117454	795.709288614524	350.050513825521	1095.789276449031	667.243189494464	267.861421294217	1205.656252184512	615.772624569384	326.145883854903	1233.660742413366	538.271348283232	313.445038484648	1195.569626254331	462.245837718318	302.456549696919	1087.505943264925	361.858226843386	256.885273192453	1143.559571010528	238.464100838353	300.634440100479	1055.612062667479	399.849514193168	562.604835870244	983.239207831714	299.648439136489	628.072186003303	1014.809074497689	203.109770147493	562.053603703441	874.307146941584	42.120230418868	536.484440762694	1044.314527107307	95.697338652245	570.189905663373	957.804032497247	36.752596990033	611.141181939575	1165.923229944263	44.336239275795	598.376186390974	1013.745187829376	88.901745098498	345.015990283392	1076.936512958246	80.218490359194	257.179275246968	1167.650313042306	135.682909691977	273.164630050721	1284.807927294022	76.150910568072	228.683980695518	889.636188519361	1094.189173831368	212.862585375675	891.053965238524	832.933108214207	200.579232383758	1152.604049314101	1108.776558411161	772.708568096895	1393.306439788431	1069.748085837211	699.818578089825	
58	39.659142857143	844.677237613977	1008.785682352132	511.752160077211	1002.958570568483	1432.890862054331	307.842142062278	1130.312820331953	1362.123714356509	449.438690553009	1080.910507218857	1437.724605580159	635.343300974034	1016.838302827239	1496.101317978239	463.029857074987	1086.149365605025	939.939491418665	596.295546332818	1036.171886896105	965.392124586117	326.551431179792	1107.828159806483	734.793126210943	563.501553847718	1026.159426241156	630.391969295924	633.260278453993	1090.092181463806	573.664201102267	545.805744311940	1083.973053448974	486.626972159956	552.252763314779	1126.925640179895	795.394173602209	350.083606493138	1093.461583079369	667.181032176048	267.398838017629	1202.399766653631	615.490372449114	327.118251449913	1231.513205201314	539.880763158650	314.254686759392	1196.836065536048	463.913849258934	302.614555225760	1095.136818341892	358.054352194673	254.968467247947	1157.256382108491	237.391950004816	299.156453754346	1051.498042603560	399.550220052304	562.492435235843	978.888442813407	299.548751340400	628.050298046469	1010.022919883754	202.937801201888	562.012475278463	869.010434168528	42.143510165963	536.545989295654	1039.072626500694	95.617540753324	570.150430959855	952.526689445922	36.744466411342	611.199431233194	1160.663838353953	44.167595361220	598.425734136603	1035.458734793374	80.182649335020	341.290949475024	1100.239190823525	75.605583462000	254.251263080281	1187.501404955020	136.040198415552	271.591921015395	1308.484381617222	83.340505358352	228.419815245196	883.430406068163	1096.013760607884	214.927095354978	880.847034159879	834.691927826174	203.804264334674	1158.948395988744	1108.974302535446	769.986731307748	1399.390002262298	1081.733169070488	692.825727954980	
